<svg xmlns="http://www.w3.org/2000/svg" viewBox="0 0 100 100" fill="none">
  <rect width="100" height="100" rx="20" fill="#4F46E5"/>
  <path d="M50 25C36.2 25 25 36.2 25 50s11.2 25 25 25 25-11.2 25-25S63.8 25 50 25zm0 45c-11 0-20-9-20-20s9-20 20-20 20 9 20 20-9 20-20 20z" fill="#fff"/>
  <path d="M50 35c-8.3 0-15 6.7-15 15s6.7 15 15 15 15-6.7 15-15-6.7-15-15-15zm0 25c-5.5 0-10-4.5-10-10s4.5-10 10-10 10 4.5 10 10-4.5 10-10 10z" fill="#fff"/>
  <rect x="47" y="48" width="6" height="12" rx="3" fill="#F59E0B"/>
  <rect x="47" y="45" width="6" height="6" rx="3" fill="#F59E0B"/>
</svg>
